{
  "source": "C:\\Users\\Peter\\Desktop\\stuff\\MIUN\\quantitative_research\\video_compression\\videos\\HEVC_CLASS_B\\Cactus_1920x1080_50.y4m",
  "output": "C:\\Users\\Peter\\Desktop\\stuff\\MIUN\\quantitative_research\\video_compression\\compressed_videos\\HEVC_CLASS_B\\vp9\\3\\Cactus_1920x1080_50_vp9.webm",
  "codec": "vp9",
  "ok": "Input #0, yuv4mpegpipe, from 'C:\\Users\\Peter\\Desktop\\stuff\\MIUN\\quantitative_research\\video_compression\\videos\\HEVC_CLASS_B\\Cactus_1920x1080_50.y4m':\n  Duration: 00:00:10.00, start: 0.000000, bitrate: 1244162 kb/s\n  Stream #0:0: Video: rawvideo (I420 / 0x30323449), yuv420p(progressive), 1920x1080, 50 fps, 50 tbr, 50 tbn\n[out#0/webm @ 000001bc45289b40] Codec AVOption b:a (set bitrate (in bits/s)) has not been used for any stream. The most likely reason is either wrong type (e.g. a video option with no video streams) or that it is a private option of some decoder which was not actually used for any stream.\nStream mapping:\n  Stream #0:0 -> #0:0 (rawvideo (native) -> vp9 (libvpx-vp9))\nPress [q] to stop, [?] for help\n[libvpx-vp9 @ 000001bc4528be80] v1.15.2-100-g40561f514\nOutput #0, webm, to 'C:\\Users\\Peter\\Desktop\\stuff\\MIUN\\quantitative_research\\video_compression\\compressed_videos\\HEVC_CLASS_B\\vp9\\3\\Cactus_1920x1080_50_vp9.webm':\n  Metadata:\n    encoder         : Lavf62.3.100\n  Stream #0:0: Video: vp9, yuv420p(tv, progressive), 1920x1080, q=2-31, 3000 kb/s, 50 fps, 1k tbn\n    Metadata:\n      encoder         : Lavc62.11.100 libvpx-vp9\n    Side data:\n      cpb: bitrate max/min/avg: 0/0/0 buffer size: 3000000 vbv_delay: N/A\nframe=    0 fps=0.0 q=0.0 size=       0KiB time=N/A bitrate=N/A speed=N/A elapsed=0:00:00.51    \nframe=    5 fps=4.8 q=52.0 size=       0KiB time=00:00:00.10 bitrate=  38.6kbits/s speed=0.0958x elapsed=0:00:01.04    \nframe=   10 fps=6.4 q=48.0 size=       0KiB time=00:00:00.20 bitrate=  19.3kbits/s speed=0.128x elapsed=0:00:01.56    \nframe=   15 fps=7.2 q=46.0 size=       0KiB time=00:00:00.30 bitrate=  12.9kbits/s speed=0.145x elapsed=0:00:02.07    \nframe=   19 fps=7.2 q=49.0 size=       0KiB time=00:00:00.38 bitrate=  10.1kbits/s speed=0.144x elapsed=0:00:02.63    \nframe=   22 fps=6.9 q=50.0 size=       0KiB time=00:00:00.44 bitrate=   8.8kbits/s speed=0.138x elapsed=0:00:03.18    \nframe=   27 fps=7.3 q=50.0 size=       0KiB time=00:00:00.54 bitrate=   7.1kbits/s speed=0.146x elapsed=0:00:03.70    \nframe=   32 fps=7.5 q=50.0 size=       0KiB time=00:00:00.64 bitrate=   6.0kbits/s speed=0.151x elapsed=0:00:04.24    \nframe=   36 fps=7.5 q=49.0 size=       0KiB time=00:00:00.72 bitrate=   5.4kbits/s speed=0.151x elapsed=0:00:04.78    \nframe=   40 fps=7.5 q=50.0 size=       0KiB time=00:00:00.80 bitrate=   4.8kbits/s speed=0.149x elapsed=0:00:05.35    \nframe=   44 fps=7.5 q=50.0 size=       0KiB time=00:00:00.88 bitrate=   4.4kbits/s speed=0.149x elapsed=0:00:05.90    \nframe=   49 fps=7.6 q=50.0 size=       0KiB time=00:00:00.98 bitrate=   3.9kbits/s speed=0.152x elapsed=0:00:06.44    \nframe=   53 fps=7.6 q=52.0 size=       0KiB time=00:00:01.06 bitrate=   3.6kbits/s speed=0.152x elapsed=0:00:06.98    \nframe=   57 fps=7.6 q=51.0 size=       0KiB time=00:00:01.14 bitrate=   3.4kbits/s speed=0.151x elapsed=0:00:07.53    \nframe=   61 fps=7.6 q=49.0 size=       0KiB time=00:00:01.22 bitrate=   3.2kbits/s speed=0.151x elapsed=0:00:08.05    \nframe=   65 fps=7.6 q=48.0 size=       0KiB time=00:00:01.30 bitrate=   3.0kbits/s speed=0.151x elapsed=0:00:08.58    \nframe=   68 fps=7.5 q=49.0 size=       0KiB time=00:00:01.36 bitrate=   2.8kbits/s speed=0.149x elapsed=0:00:09.10    \nframe=   72 fps=7.5 q=50.0 size=       0KiB time=00:00:01.44 bitrate=   2.7kbits/s speed=0.149x elapsed=0:00:09.63    \nframe=   77 fps=7.6 q=51.0 size=       0KiB time=00:00:01.54 bitrate=   2.5kbits/s speed=0.152x elapsed=0:00:10.15    \nframe=   81 fps=7.5 q=49.0 size=       0KiB time=00:00:01.62 bitrate=   2.4kbits/s speed=0.151x elapsed=0:00:10.74    \nframe=   85 fps=7.5 q=50.0 size=       0KiB time=00:00:01.70 bitrate=   2.3kbits/s speed=0.151x elapsed=0:00:11.28    \nframe=   89 fps=7.5 q=32.0 size=       0KiB time=00:00:01.78 bitrate=   2.2kbits/s speed=0.151x elapsed=0:00:11.81    \nframe=   94 fps=7.6 q=50.0 size=       0KiB time=00:00:01.88 bitrate=   2.1kbits/s speed=0.152x elapsed=0:00:12.36    \nframe=   98 fps=7.6 q=50.0 size=       0KiB time=00:00:01.96 bitrate=   2.0kbits/s speed=0.152x elapsed=0:00:12.90    \nframe=  102 fps=7.6 q=50.0 size=       0KiB time=00:00:02.04 bitrate=   1.9kbits/s speed=0.152x elapsed=0:00:13.42    \nframe=  106 fps=7.6 q=51.0 size=       0KiB time=00:00:02.12 bitrate=   1.8kbits/s speed=0.152x elapsed=0:00:13.96    \nframe=  110 fps=7.6 q=51.0 size=       0KiB time=00:00:02.20 bitrate=   1.8kbits/s speed=0.152x elapsed=0:00:14.47    \nframe=  115 fps=7.7 q=50.0 size=       0KiB time=00:00:02.30 bitrate=   1.7kbits/s speed=0.153x elapsed=0:00:15.01    \nframe=  119 fps=7.7 q=49.0 size=       0KiB time=00:00:02.38 bitrate=   1.6kbits/s speed=0.153x elapsed=0:00:15.53    \nframe=  123 fps=7.7 q=48.0 size=       0KiB time=00:00:02.46 bitrate=   1.6kbits/s speed=0.153x elapsed=0:00:16.04    \nframe=  128 fps=7.7 q=50.0 size=       0KiB time=00:00:02.56 bitrate=   1.5kbits/s speed=0.155x elapsed=0:00:16.56    \nframe=  131 fps=7.6 q=48.0 size=     768KiB time=00:00:02.60 bitrate=2419.8kbits/s speed=0.152x elapsed=0:00:17.13    \nframe=  136 fps=7.7 q=50.0 size=     768KiB time=00:00:02.72 bitrate=2313.0kbits/s speed=0.154x elapsed=0:00:17.68    \nframe=  139 fps=7.6 q=50.0 size=     768KiB time=00:00:02.78 bitrate=2263.1kbits/s speed=0.153x elapsed=0:00:18.19    \nframe=  144 fps=7.7 q=49.0 size=     768KiB time=00:00:02.88 bitrate=2184.5kbits/s speed=0.154x elapsed=0:00:18.72    \nframe=  148 fps=7.7 q=50.0 size=     768KiB time=00:00:02.96 bitrate=2125.5kbits/s speed=0.154x elapsed=0:00:19.25    \nframe=  151 fps=7.6 q=31.0 size=     768KiB time=00:00:03.02 bitrate=2083.3kbits/s speed=0.153x elapsed=0:00:19.80    \nframe=  156 fps=7.7 q=49.0 size=     768KiB time=00:00:03.12 bitrate=2016.5kbits/s speed=0.154x elapsed=0:00:20.32    \nframe=  160 fps=7.7 q=50.0 size=     768KiB time=00:00:03.20 bitrate=1966.1kbits/s speed=0.154x elapsed=0:00:20.83    \nframe=  164 fps=7.7 q=49.0 size=     768KiB time=00:00:03.28 bitrate=1918.1kbits/s speed=0.154x elapsed=0:00:21.36    \nframe=  168 fps=7.7 q=49.0 size=     768KiB time=00:00:03.36 bitrate=1872.5kbits/s speed=0.153x elapsed=0:00:21.89    \nframe=  172 fps=7.7 q=49.0 size=     768KiB time=00:00:03.44 bitrate=1828.9kbits/s speed=0.153x elapsed=0:00:22.41    \nframe=  176 fps=7.7 q=46.0 size=     768KiB time=00:00:03.52 bitrate=1787.3kbits/s speed=0.153x elapsed=0:00:22.97    \nframe=  179 fps=7.6 q=48.0 size=     768KiB time=00:00:03.58 bitrate=1757.4kbits/s speed=0.152x elapsed=0:00:23.52    \nframe=  181 fps=7.5 q=48.0 size=     768KiB time=00:00:03.62 bitrate=1738.0kbits/s speed=0.15x elapsed=0:00:24.11    \nframe=  183 fps=7.4 q=49.0 size=     768KiB time=00:00:03.66 bitrate=1719.0kbits/s speed=0.148x elapsed=0:00:24.66    \nframe=  186 fps=7.4 q=48.0 size=     768KiB time=00:00:03.72 bitrate=1691.3kbits/s speed=0.147x elapsed=0:00:25.30    \nframe=  188 fps=7.3 q=48.0 size=     768KiB time=00:00:03.76 bitrate=1673.3kbits/s speed=0.145x elapsed=0:00:25.90    \nframe=  190 fps=7.2 q=49.0 size=     768KiB time=00:00:03.80 bitrate=1655.6kbits/s speed=0.144x elapsed=0:00:26.44    \nframe=  192 fps=7.1 q=49.0 size=     768KiB time=00:00:03.84 bitrate=1638.4kbits/s speed=0.142x elapsed=0:00:26.97    \nframe=  194 fps=7.0 q=49.0 size=     768KiB time=00:00:03.88 bitrate=1621.5kbits/s speed=0.141x elapsed=0:00:27.60    \nframe=  194 fps=6.9 q=49.0 size=     768KiB time=00:00:03.88 bitrate=1621.5kbits/s speed=0.138x elapsed=0:00:28.21    \nframe=  197 fps=6.8 q=48.0 size=     768KiB time=00:00:03.94 bitrate=1596.8kbits/s speed=0.137x elapsed=0:00:28.76    \nframe=  199 fps=6.8 q=48.0 size=     768KiB time=00:00:03.98 bitrate=1580.8kbits/s speed=0.136x elapsed=0:00:29.35    \nframe=  201 fps=6.7 q=49.0 size=     768KiB time=00:00:04.02 bitrate=1565.0kbits/s speed=0.134x elapsed=0:00:29.93    \nframe=  203 fps=6.7 q=49.0 size=     768KiB time=00:00:04.06 bitrate=1549.6kbits/s speed=0.133x elapsed=0:00:30.47    \nframe=  205 fps=6.6 q=49.0 size=     768KiB time=00:00:04.10 bitrate=1534.5kbits/s speed=0.132x elapsed=0:00:31.08    \nframe=  206 fps=6.5 q=29.0 size=     768KiB time=00:00:04.12 bitrate=1527.1kbits/s speed=0.13x elapsed=0:00:31.73    \nframe=  208 fps=6.4 q=48.0 size=     768KiB time=00:00:04.16 bitrate=1512.4kbits/s speed=0.129x elapsed=0:00:32.33    \nframe=  211 fps=6.4 q=49.0 size=     768KiB time=00:00:04.22 bitrate=1490.9kbits/s speed=0.128x elapsed=0:00:32.87    \nframe=  214 fps=6.4 q=50.0 size=     768KiB time=00:00:04.28 bitrate=1470.0kbits/s speed=0.128x elapsed=0:00:33.40    \nframe=  216 fps=6.4 q=50.0 size=     768KiB time=00:00:04.32 bitrate=1456.4kbits/s speed=0.127x elapsed=0:00:33.97    \nframe=  218 fps=6.3 q=49.0 size=     768KiB time=00:00:04.36 bitrate=1443.0kbits/s speed=0.126x elapsed=0:00:34.54    \nframe=  221 fps=6.3 q=49.0 size=     768KiB time=00:00:04.42 bitrate=1423.4kbits/s speed=0.126x elapsed=0:00:35.07    \nframe=  225 fps=6.3 q=49.0 size=     768KiB time=00:00:04.50 bitrate=1398.1kbits/s speed=0.126x elapsed=0:00:35.60    \nframe=  227 fps=6.3 q=49.0 size=     768KiB time=00:00:04.54 bitrate=1385.8kbits/s speed=0.126x elapsed=0:00:36.14    \nframe=  230 fps=6.3 q=46.0 size=     768KiB time=00:00:04.60 bitrate=1367.7kbits/s speed=0.125x elapsed=0:00:36.67    \nframe=  233 fps=6.3 q=47.0 size=     768KiB time=00:00:04.66 bitrate=1350.1kbits/s speed=0.125x elapsed=0:00:37.20    \nframe=  236 fps=6.3 q=49.0 size=     768KiB time=00:00:04.72 bitrate=1332.9kbits/s speed=0.125x elapsed=0:00:37.75    \nframe=  238 fps=6.2 q=49.0 size=     768KiB time=00:00:04.76 bitrate=1321.7kbits/s speed=0.124x elapsed=0:00:38.26    \nframe=  242 fps=6.2 q=51.0 size=     768KiB time=00:00:04.84 bitrate=1299.9kbits/s speed=0.125x elapsed=0:00:38.81    \nframe=  245 fps=6.2 q=52.0 size=     768KiB time=00:00:04.90 bitrate=1284.0kbits/s speed=0.125x elapsed=0:00:39.34    \nframe=  247 fps=6.2 q=52.0 size=     768KiB time=00:00:04.94 bitrate=1273.6kbits/s speed=0.124x elapsed=0:00:39.92    \nframe=  250 fps=6.2 q=50.0 size=     768KiB time=00:00:05.00 bitrate=1258.3kbits/s speed=0.123x elapsed=0:00:40.49    \nframe=  253 fps=6.2 q=51.0 size=     768KiB time=00:00:05.06 bitrate=1243.4kbits/s speed=0.123x elapsed=0:00:41.03    \nframe=  256 fps=6.2 q=51.0 size=     768KiB time=00:00:05.12 bitrate=1228.8kbits/s speed=0.123x elapsed=0:00:41.58    \nframe=  257 fps=6.1 q=29.0 size=     768KiB time=00:00:05.14 bitrate=1224.0kbits/s speed=0.122x elapsed=0:00:42.15    \nframe=  260 fps=6.1 q=49.0 size=    1792KiB time=00:00:05.20 bitrate=2823.1kbits/s speed=0.122x elapsed=0:00:42.67    \nframe=  264 fps=6.1 q=49.0 size=    1792KiB time=00:00:05.28 bitrate=2780.3kbits/s speed=0.122x elapsed=0:00:43.21    \nframe=  267 fps=6.1 q=50.0 size=    1792KiB time=00:00:05.34 bitrate=2749.1kbits/s speed=0.122x elapsed=0:00:43.74    \nframe=  269 fps=6.1 q=50.0 size=    1792KiB time=00:00:05.38 bitrate=2728.6kbits/s speed=0.122x elapsed=0:00:44.26    \nframe=  273 fps=6.1 q=49.0 size=    1792KiB time=00:00:05.46 bitrate=2688.7kbits/s speed=0.122x elapsed=0:00:44.78    \nframe=  276 fps=6.1 q=50.0 size=    1792KiB time=00:00:05.52 bitrate=2659.4kbits/s speed=0.122x elapsed=0:00:45.33    \nframe=  278 fps=6.1 q=50.0 size=    1792KiB time=00:00:05.56 bitrate=2640.3kbits/s speed=0.121x elapsed=0:00:45.85    \nframe=  282 fps=6.1 q=47.0 size=    1792KiB time=00:00:05.64 bitrate=2602.8kbits/s speed=0.122x elapsed=0:00:46.39    \nframe=  285 fps=6.1 q=46.0 size=    1792KiB time=00:00:05.70 bitrate=2575.4kbits/s speed=0.121x elapsed=0:00:46.91    \nframe=  288 fps=6.1 q=46.0 size=    1792KiB time=00:00:05.76 bitrate=2548.6kbits/s speed=0.121x elapsed=0:00:47.44    \nframe=  290 fps=6.0 q=32.0 size=    1792KiB time=00:00:05.80 bitrate=2531.0kbits/s speed=0.121x elapsed=0:00:47.95    \nframe=  293 fps=6.0 q=47.0 size=    1792KiB time=00:00:05.86 bitrate=2505.1kbits/s speed=0.121x elapsed=0:00:48.48    \nframe=  296 fps=6.0 q=48.0 size=    1792KiB time=00:00:05.92 bitrate=2479.7kbits/s speed=0.121x elapsed=0:00:48.99    \nframe=  300 fps=6.1 q=49.0 size=    1792KiB time=00:00:06.00 bitrate=2446.7kbits/s speed=0.121x elapsed=0:00:49.56    \nframe=  302 fps=6.0 q=49.0 size=    1792KiB time=00:00:06.02 bitrate=2438.5kbits/s speed=0.12x elapsed=0:00:50.15    \nframe=  305 fps=6.0 q=48.0 size=    1792KiB time=00:00:06.10 bitrate=2406.6kbits/s speed=0.12x elapsed=0:00:50.74    \nframe=  308 fps=6.0 q=48.0 size=    1792KiB time=00:00:06.16 bitrate=2383.1kbits/s speed=0.12x elapsed=0:00:51.27    \nframe=  311 fps=6.0 q=49.0 size=    1792KiB time=00:00:06.22 bitrate=2360.1kbits/s speed=0.12x elapsed=0:00:51.82    \nframe=  313 fps=6.0 q=49.0 size=    1792KiB time=00:00:06.26 bitrate=2345.1kbits/s speed=0.12x elapsed=0:00:52.36    \nframe=  317 fps=6.0 q=49.0 size=    1792KiB time=00:00:06.34 bitrate=2315.5kbits/s speed=0.12x elapsed=0:00:52.89    \nframe=  320 fps=6.0 q=50.0 size=    1792KiB time=00:00:06.40 bitrate=2293.8kbits/s speed=0.12x elapsed=0:00:53.43    \nframe=  322 fps=6.0 q=51.0 size=    1792KiB time=00:00:06.44 bitrate=2279.5kbits/s speed=0.119x elapsed=0:00:53.95    \nframe=  325 fps=6.0 q=50.0 size=    1792KiB time=00:00:06.50 bitrate=2258.5kbits/s speed=0.119x elapsed=0:00:54.49    \nframe=  328 fps=6.0 q=50.0 size=    1792KiB time=00:00:06.56 bitrate=2237.8kbits/s speed=0.119x elapsed=0:00:55.01    \nframe=  332 fps=6.0 q=51.0 size=    1792KiB time=00:00:06.64 bitrate=2210.9kbits/s speed=0.12x elapsed=0:00:55.54    \nframe=  334 fps=6.0 q=31.0 size=    1792KiB time=00:00:06.68 bitrate=2197.6kbits/s speed=0.119x elapsed=0:00:56.09    \nframe=  338 fps=6.0 q=48.0 size=    1792KiB time=00:00:06.76 bitrate=2171.6kbits/s speed=0.119x elapsed=0:00:56.62    \nframe=  341 fps=6.0 q=48.0 size=    1792KiB time=00:00:06.82 bitrate=2152.5kbits/s speed=0.119x elapsed=0:00:57.17    \nframe=  344 fps=6.0 q=49.0 size=    1792KiB time=00:00:06.88 bitrate=2133.7kbits/s speed=0.119x elapsed=0:00:57.69    \nframe=  346 fps=5.9 q=49.0 size=    1792KiB time=00:00:06.92 bitrate=2121.4kbits/s speed=0.119x elapsed=0:00:58.27    \nframe=  349 fps=5.9 q=49.0 size=    1792KiB time=00:00:06.98 bitrate=2103.2kbits/s speed=0.119x elapsed=0:00:58.79    \nframe=  351 fps=5.9 q=50.0 size=    1792KiB time=00:00:07.02 bitrate=2091.2kbits/s speed=0.118x elapsed=0:00:59.34    \nframe=  354 fps=5.9 q=51.0 size=    1792KiB time=00:00:07.08 bitrate=2073.5kbits/s speed=0.118x elapsed=0:00:59.89    \nframe=  355 fps=5.9 q=51.0 size=    1792KiB time=00:00:07.10 bitrate=2067.6kbits/s speed=0.117x elapsed=0:01:00.43    \nframe=  357 fps=5.9 q=52.0 size=    1792KiB time=00:00:07.14 bitrate=2056.0kbits/s speed=0.117x elapsed=0:01:00.98    \nframe=  359 fps=5.8 q=50.0 size=    1792KiB time=00:00:07.18 bitrate=2044.6kbits/s speed=0.117x elapsed=0:01:01.57    \nframe=  362 fps=5.8 q=50.0 size=    1792KiB time=00:00:07.24 bitrate=2027.6kbits/s speed=0.117x elapsed=0:01:02.12    \nframe=  364 fps=5.8 q=50.0 size=    1792KiB time=00:00:07.28 bitrate=2016.5kbits/s speed=0.116x elapsed=0:01:02.71    \nframe=  366 fps=5.8 q=50.0 size=    1792KiB time=00:00:07.32 bitrate=2005.5kbits/s speed=0.116x elapsed=0:01:03.29    \nframe=  369 fps=5.8 q=50.0 size=    1792KiB time=00:00:07.38 bitrate=1989.2kbits/s speed=0.116x elapsed=0:01:03.83    \nframe=  372 fps=5.8 q=51.0 size=    1792KiB time=00:00:07.44 bitrate=1973.1kbits/s speed=0.115x elapsed=0:01:04.49    \nframe=  375 fps=5.8 q=51.0 size=    1792KiB time=00:00:07.48 bitrate=1962.6kbits/s speed=0.115x elapsed=0:01:05.02    \nframe=  375 fps=5.7 q=51.0 size=    1792KiB time=00:00:07.50 bitrate=1957.3kbits/s speed=0.114x elapsed=0:01:05.66    \nframe=  378 fps=5.7 q=50.0 size=    1792KiB time=00:00:07.56 bitrate=1941.8kbits/s speed=0.114x elapsed=0:01:06.20    \nframe=  381 fps=5.7 q=51.0 size=    1792KiB time=00:00:07.62 bitrate=1926.5kbits/s speed=0.114x elapsed=0:01:06.71    \nframe=  383 fps=5.7 q=51.0 size=    1792KiB time=00:00:07.66 bitrate=1916.5kbits/s speed=0.114x elapsed=0:01:07.25    \nframe=  384 fps=5.7 q=51.0 size=    1792KiB time=00:00:07.68 bitrate=1911.5kbits/s speed=0.113x elapsed=0:01:07.79    \nframe=  386 fps=5.6 q=50.0 size=    2816KiB time=00:00:07.72 bitrate=2988.2kbits/s speed=0.113x elapsed=0:01:08.35    \nframe=  389 fps=5.6 q=50.0 size=    2816KiB time=00:00:07.78 bitrate=2965.1kbits/s speed=0.113x elapsed=0:01:08.92    \nframe=  392 fps=5.6 q=50.0 size=    2816KiB time=00:00:07.84 bitrate=2942.4kbits/s speed=0.113x elapsed=0:01:09.54    \nframe=  394 fps=5.6 q=49.0 size=    2816KiB time=00:00:07.88 bitrate=2927.5kbits/s speed=0.112x elapsed=0:01:10.11    \nframe=  395 fps=5.6 q=48.0 size=    2816KiB time=00:00:07.90 bitrate=2920.1kbits/s speed=0.112x elapsed=0:01:10.63    \nframe=  397 fps=5.6 q=49.0 size=    2816KiB time=00:00:07.94 bitrate=2905.4kbits/s speed=0.111x elapsed=0:01:11.22    \nframe=  400 fps=5.6 q=49.0 size=    2816KiB time=00:00:07.98 bitrate=2890.8kbits/s speed=0.111x elapsed=0:01:11.78    \nframe=  402 fps=5.6 q=49.0 size=    2816KiB time=00:00:08.04 bitrate=2869.2kbits/s speed=0.111x elapsed=0:01:12.34    \nframe=  405 fps=5.6 q=50.0 size=    2816KiB time=00:00:08.10 bitrate=2848.0kbits/s speed=0.111x elapsed=0:01:12.90    \nframe=  406 fps=5.5 q=51.0 size=    2816KiB time=00:00:08.12 bitrate=2841.0kbits/s speed=0.111x elapsed=0:01:13.46    \nframe=  409 fps=5.5 q=49.0 size=    2816KiB time=00:00:08.18 bitrate=2820.1kbits/s speed=0.11x elapsed=0:01:14.04    \nframe=  411 fps=5.5 q=49.0 size=    2816KiB time=00:00:08.22 bitrate=2806.4kbits/s speed=0.11x elapsed=0:01:14.68    \nframe=  413 fps=5.5 q=49.0 size=    2816KiB time=00:00:08.26 bitrate=2792.8kbits/s speed=0.11x elapsed=0:01:15.20    \nframe=  415 fps=5.5 q=50.0 size=    2816KiB time=00:00:08.30 bitrate=2779.4kbits/s speed=0.11x elapsed=0:01:15.73    \nframe=  417 fps=5.5 q=50.0 size=    2816KiB time=00:00:08.34 bitrate=2766.0kbits/s speed=0.109x elapsed=0:01:16.32    \nframe=  419 fps=5.4 q=51.0 size=    2816KiB time=00:00:08.38 bitrate=2752.8kbits/s speed=0.109x elapsed=0:01:16.91    \nframe=  421 fps=5.4 q=50.0 size=    2816KiB time=00:00:08.42 bitrate=2739.7kbits/s speed=0.109x elapsed=0:01:17.49    \nframe=  423 fps=5.4 q=50.0 size=    2816KiB time=00:00:08.46 bitrate=2726.8kbits/s speed=0.108x elapsed=0:01:18.04    \nframe=  425 fps=5.4 q=50.0 size=    2816KiB time=00:00:08.50 bitrate=2714.0kbits/s speed=0.108x elapsed=0:01:18.67    \nframe=  428 fps=5.4 q=50.0 size=    2816KiB time=00:00:08.54 bitrate=2701.2kbits/s speed=0.108x elapsed=0:01:19.28    \nframe=  428 fps=5.4 q=50.0 size=    2816KiB time=00:00:08.56 bitrate=2694.9kbits/s speed=0.107x elapsed=0:01:19.98    \nframe=  430 fps=5.3 q=50.0 size=    2816KiB time=00:00:08.58 bitrate=2688.7kbits/s speed=0.106x elapsed=0:01:20.65    \nframe=  432 fps=5.3 q=50.0 size=    2816KiB time=00:00:08.62 bitrate=2676.2kbits/s speed=0.106x elapsed=0:01:21.27    \nframe=  434 fps=5.3 q=51.0 size=    2816KiB time=00:00:08.68 bitrate=2657.7kbits/s speed=0.106x elapsed=0:01:22.03    \nframe=  436 fps=5.3 q=51.0 size=    2816KiB time=00:00:08.72 bitrate=2645.5kbits/s speed=0.105x elapsed=0:01:22.72    \nframe=  438 fps=5.3 q=51.0 size=    2816KiB time=00:00:08.76 bitrate=2633.4kbits/s speed=0.105x elapsed=0:01:23.31    \nframe=  439 fps=5.2 q=51.0 size=    2816KiB time=00:00:08.78 bitrate=2627.4kbits/s speed=0.105x elapsed=0:01:23.92    \nframe=  440 fps=5.2 q=31.0 size=    2816KiB time=00:00:08.78 bitrate=2627.4kbits/s speed=0.104x elapsed=0:01:24.59    \nframe=  442 fps=5.2 q=49.0 size=    2816KiB time=00:00:08.84 bitrate=2609.6kbits/s speed=0.104x elapsed=0:01:25.29    \nframe=  444 fps=5.2 q=50.0 size=    2816KiB time=00:00:08.86 bitrate=2603.7kbits/s speed=0.103x elapsed=0:01:25.86    \nframe=  446 fps=5.1 q=50.0 size=    2816KiB time=00:00:08.92 bitrate=2586.2kbits/s speed=0.103x elapsed=0:01:26.66    \nframe=  448 fps=5.1 q=50.0 size=    2816KiB time=00:00:08.96 bitrate=2574.6kbits/s speed=0.103x elapsed=0:01:27.36    \nframe=  450 fps=5.1 q=48.0 size=    2816KiB time=00:00:09.00 bitrate=2563.2kbits/s speed=0.102x elapsed=0:01:28.06    \nframe=  450 fps=5.1 q=48.0 size=    2816KiB time=00:00:09.00 bitrate=2563.2kbits/s speed=0.101x elapsed=0:01:28.80    \nframe=  452 fps=5.1 q=48.0 size=    2816KiB time=00:00:09.04 bitrate=2551.8kbits/s speed=0.101x elapsed=0:01:29.39    \nframe=  454 fps=5.0 q=48.0 size=    2816KiB time=00:00:09.08 bitrate=2540.6kbits/s speed=0.101x elapsed=0:01:29.95    \nframe=  456 fps=5.0 q=49.0 size=    2816KiB time=00:00:09.12 bitrate=2529.5kbits/s speed=0.101x elapsed=0:01:30.50    \nframe=  458 fps=5.0 q=49.0 size=    2816KiB time=00:00:09.16 bitrate=2518.4kbits/s speed=0.101x elapsed=0:01:31.05    \nframe=  460 fps=5.0 q=50.0 size=    2816KiB time=00:00:09.20 bitrate=2507.5kbits/s speed= 0.1x elapsed=0:01:31.57    \nframe=  461 fps=5.0 q=50.0 size=    2816KiB time=00:00:09.22 bitrate=2502.0kbits/s speed= 0.1x elapsed=0:01:32.12    \nframe=  464 fps=5.0 q=49.0 size=    2816KiB time=00:00:09.26 bitrate=2491.2kbits/s speed=0.0998x elapsed=0:01:32.78    \nframe=  466 fps=5.0 q=50.0 size=    2816KiB time=00:00:09.32 bitrate=2475.2kbits/s speed=0.0998x elapsed=0:01:33.38    \nframe=  469 fps=5.0 q=50.0 size=    2816KiB time=00:00:09.38 bitrate=2459.3kbits/s speed=0.0998x elapsed=0:01:33.97    \nframe=  471 fps=5.0 q=50.0 size=    2816KiB time=00:00:09.42 bitrate=2448.9kbits/s speed=0.0996x elapsed=0:01:34.56    \nframe=  472 fps=5.0 q=50.0 size=    2816KiB time=00:00:09.44 bitrate=2443.7kbits/s speed=0.0992x elapsed=0:01:35.13    \nframe=  475 fps=5.0 q=49.0 size=    2816KiB time=00:00:09.50 bitrate=2428.3kbits/s speed=0.0992x elapsed=0:01:35.76    \nframe=  476 fps=4.9 q=49.0 size=    2816KiB time=00:00:09.52 bitrate=2423.2kbits/s speed=0.0988x elapsed=0:01:36.34    \nframe=  476 fps=4.9 q=49.0 size=    2816KiB time=00:00:09.52 bitrate=2423.2kbits/s speed=0.0983x elapsed=0:01:36.87    \nframe=  476 fps=4.9 q=49.0 size=    2816KiB time=00:00:09.52 bitrate=2423.2kbits/s speed=0.0977x elapsed=0:01:37.44    \nframe=  476 fps=4.9 q=49.0 size=    2816KiB time=00:00:09.52 bitrate=2423.2kbits/s speed=0.0971x elapsed=0:01:38.09    \nframe=  476 fps=4.8 q=49.0 size=    2816KiB time=00:00:09.52 bitrate=2423.2kbits/s speed=0.0965x elapsed=0:01:38.68    \nframe=  476 fps=4.8 q=49.0 size=    2816KiB time=00:00:09.52 bitrate=2423.2kbits/s speed=0.096x elapsed=0:01:39.19    \nframe=  476 fps=4.8 q=49.0 size=    2816KiB time=00:00:09.52 bitrate=2423.2kbits/s speed=0.0955x elapsed=0:01:39.73    \nframe=  476 fps=4.7 q=49.0 size=    2816KiB time=00:00:09.52 bitrate=2423.2kbits/s speed=0.0949x elapsed=0:01:40.32    \nframe=  476 fps=4.7 q=49.0 size=    2816KiB time=00:00:09.52 bitrate=2423.2kbits/s speed=0.0944x elapsed=0:01:40.86    \nframe=  476 fps=4.7 q=49.0 size=    2816KiB time=00:00:09.52 bitrate=2423.2kbits/s speed=0.0939x elapsed=0:01:41.41    \n[out#0/webm @ 000001bc45289b40] video:3970KiB audio:0KiB subtitle:0KiB other streams:0KiB global headers:0KiB muxing overhead: 0.102078%\nframe=  500 fps=4.9 q=49.0 Lsize=    3974KiB time=00:00:10.00 bitrate=3255.7kbits/s speed=0.0983x elapsed=0:01:41.71    \n",
  "seconds": 101.91249918937683,
  "probe_out": {}
}